<svg xmlns="http://www.w3.org/2000/svg" width="512" height="512" viewBox="0 0 512 512" fill="none">
  <rect width="512" height="512" rx="96" fill="#1F1A17"/>
  <g transform="translate(256 248) scale(1.5)">
    <path d="M 0,-112 C 18,-112 24,-98 24,-82 C 24,-58 8,-42 8,-20 C 8,12 35,34 35,78 L 35,116 L -35,116 L -35,78 C -35,34 -8,12 -8,-20 C -8,-42 -24,-58 -24,-82 C -24,-98 -18,-112 0,-112 Z" fill="#F5F1EB"/>
    <path d="M 11,-76 C 0,-62 -6,-44 -8,-18 C -11,16 8,40 12,70 C 14,88 6,102 -2,116 L 17,116 C 27,97 30,82 28,62 C 25,35 8,8 11,-24 C 13,-46 21,-62 29,-74 Z" fill="#1F1A17"/>
  </g>
</svg>